<?xml version="1.0" standalone="no"?><!DOCTYPE svg PUBLIC "-//W3C//DTD SVG 1.1//EN" "http://www.w3.org/Graphics/SVG/1.1/DTD/svg11.dtd"><svg t="1488014328444" class="icon" style="" viewBox="0 0 1024 1024" version="1.1" xmlns="http://www.w3.org/2000/svg" p-id="3989" xmlns:xlink="http://www.w3.org/1999/xlink" width="24" height="24"><defs><style type="text/css"></style></defs><path d="M887.912044 149.033291h-43.13952v-12.81691c0-38.520315-31.388894-69.931722-69.64315-69.931722h-1.064238c-38.304398 0-69.64315 31.411407-69.64315 69.931722v12.81691H319.256696v-12.81691c0-38.520315-31.337729-69.931722-69.545936-69.931722h-1.160429c-38.303374 0-69.64315 31.411407-69.64315 69.931722v12.81691H135.864876c-38.448684 0-69.64315 31.532157-69.64315 69.957305v668.789953c0 38.400588 31.194466 69.933769 69.64315 69.933769h752.047168c38.398542 0 69.739341-31.532157 69.73934-69.933769V218.989573c0.001023-38.424124-31.339776-69.956282-69.73934-69.956282z m-155.632593-12.817933c0-23.116487 18.763342-42.001603 41.785685-42.001603h1.064238c23.020296 0 41.783639 18.886139 41.783639 42.001603V260.656555c0 23.115464-18.763342 41.928948-41.783639 41.928948h-1.064238c-23.022343 0-41.785685-18.812461-41.785685-41.928948V136.215358z m-525.562901 0c0-23.116487 18.813484-42.001603 41.833781-42.001603h1.160429c22.924105 0 41.785685 18.886139 41.785685 42.001603V260.656555c0 23.115464-18.862603 41.928948-41.785685 41.928948h-1.160429c-23.02132 0-41.833781-18.812461-41.833781-41.928948V136.215358z m681.195494 765.543553H135.864876c-7.592932 0-13.928221-6.482645-13.928221-13.978362V395.974473h780.000823V887.779525c-0.001023 7.496741-6.384407 13.979386-14.025434 13.979386z" p-id="3990" fill="#999999"></path><path d="M224.272391 496.183779h128.452557V559.441499H224.272391v-63.25772zM448.677301 496.183779h127.435391V559.441499H448.677301v-63.25772zM672.016949 496.183779h125.455293V559.441499H672.016949v-63.25772zM224.272391 624.659873h128.452557v62.220086H224.272391v-62.220086zM448.677301 624.659873h127.435391v62.220086H448.677301v-62.220086zM672.016949 624.659873h125.455293v62.220086H672.016949v-62.220086zM224.272391 750.139725h128.452557v65.290006H224.272391v-65.290006zM448.677301 750.139725h127.435391v65.290006H448.677301v-65.290006zM672.016949 750.139725h125.455293v65.290006H672.016949v-65.290006z" p-id="3991" fill="#999999"></path></svg>